<mxfile host="app.diagrams.net" modified="2020-11-17T09:53:13.337Z" agent="5.0 (Windows NT 10.0; Win64; x64) AppleWebKit/537.36 (KHTML, like Gecko) Chrome/86.0.4240.193 Safari/537.36" etag="W807kIh3494yvaCzfrN2" version="13.9.3" type="github">
  <diagram id="C5RBs43oDa-KdzZeNtuy" name="Page-1">
    <mxGraphModel dx="716" dy="378" grid="1" gridSize="10" guides="1" tooltips="1" connect="1" arrows="1" fold="1" page="1" pageScale="1" pageWidth="827" pageHeight="1169" math="0" shadow="0">
      <root>
        <mxCell id="WIyWlLk6GJQsqaUBKTNV-0" />
        <mxCell id="WIyWlLk6GJQsqaUBKTNV-1" parent="WIyWlLk6GJQsqaUBKTNV-0" />
        <mxCell id="P8UpuQGkX5exm7YgRXcS-45" style="edgeStyle=orthogonalEdgeStyle;rounded=0;orthogonalLoop=1;jettySize=auto;html=1;exitX=1;exitY=0.5;exitDx=0;exitDy=0;entryX=0;entryY=0.5;entryDx=0;entryDy=0;" edge="1" parent="WIyWlLk6GJQsqaUBKTNV-1" source="P8UpuQGkX5exm7YgRXcS-37" target="P8UpuQGkX5exm7YgRXcS-39">
          <mxGeometry relative="1" as="geometry" />
        </mxCell>
        <mxCell id="P8UpuQGkX5exm7YgRXcS-46" value="2. Updates" style="edgeLabel;html=1;align=center;verticalAlign=middle;resizable=0;points=[];" vertex="1" connectable="0" parent="P8UpuQGkX5exm7YgRXcS-45">
          <mxGeometry x="-0.3465" y="9" relative="1" as="geometry">
            <mxPoint as="offset" />
          </mxGeometry>
        </mxCell>
        <mxCell id="P8UpuQGkX5exm7YgRXcS-37" value="Controller" style="html=1;align=center;" vertex="1" parent="WIyWlLk6GJQsqaUBKTNV-1">
          <mxGeometry x="50" y="60" width="110" height="50" as="geometry" />
        </mxCell>
        <mxCell id="P8UpuQGkX5exm7YgRXcS-43" style="edgeStyle=orthogonalEdgeStyle;rounded=0;orthogonalLoop=1;jettySize=auto;html=1;exitX=0;exitY=0.5;exitDx=0;exitDy=0;entryX=0.5;entryY=1;entryDx=0;entryDy=0;" edge="1" parent="WIyWlLk6GJQsqaUBKTNV-1" source="P8UpuQGkX5exm7YgRXcS-38" target="P8UpuQGkX5exm7YgRXcS-37">
          <mxGeometry relative="1" as="geometry">
            <Array as="points">
              <mxPoint x="190" y="235" />
              <mxPoint x="105" y="235" />
            </Array>
          </mxGeometry>
        </mxCell>
        <mxCell id="P8UpuQGkX5exm7YgRXcS-50" style="edgeStyle=orthogonalEdgeStyle;rounded=0;orthogonalLoop=1;jettySize=auto;html=1;exitX=1;exitY=0.75;exitDx=0;exitDy=0;entryX=0.75;entryY=1;entryDx=0;entryDy=0;" edge="1" parent="WIyWlLk6GJQsqaUBKTNV-1" source="P8UpuQGkX5exm7YgRXcS-38" target="P8UpuQGkX5exm7YgRXcS-39">
          <mxGeometry relative="1" as="geometry" />
        </mxCell>
        <mxCell id="P8UpuQGkX5exm7YgRXcS-38" value="View / Activity" style="html=1;align=center;" vertex="1" parent="WIyWlLk6GJQsqaUBKTNV-1">
          <mxGeometry x="190" y="210" width="110" height="50" as="geometry" />
        </mxCell>
        <mxCell id="P8UpuQGkX5exm7YgRXcS-48" style="edgeStyle=orthogonalEdgeStyle;rounded=0;orthogonalLoop=1;jettySize=auto;html=1;exitX=0.25;exitY=1;exitDx=0;exitDy=0;entryX=1;entryY=0.25;entryDx=0;entryDy=0;" edge="1" parent="WIyWlLk6GJQsqaUBKTNV-1" source="P8UpuQGkX5exm7YgRXcS-39" target="P8UpuQGkX5exm7YgRXcS-38">
          <mxGeometry relative="1" as="geometry" />
        </mxCell>
        <mxCell id="P8UpuQGkX5exm7YgRXcS-39" value="Model" style="html=1;align=center;" vertex="1" parent="WIyWlLk6GJQsqaUBKTNV-1">
          <mxGeometry x="420" y="60" width="110" height="50" as="geometry" />
        </mxCell>
        <mxCell id="P8UpuQGkX5exm7YgRXcS-41" style="edgeStyle=orthogonalEdgeStyle;rounded=0;orthogonalLoop=1;jettySize=auto;html=1;exitX=0.5;exitY=0;exitDx=0;exitDy=0;exitPerimeter=0;entryX=0.5;entryY=1;entryDx=0;entryDy=0;" edge="1" parent="WIyWlLk6GJQsqaUBKTNV-1" source="P8UpuQGkX5exm7YgRXcS-40" target="P8UpuQGkX5exm7YgRXcS-38">
          <mxGeometry relative="1" as="geometry" />
        </mxCell>
        <mxCell id="P8UpuQGkX5exm7YgRXcS-40" value="Actor" style="shape=umlActor;verticalLabelPosition=bottom;verticalAlign=top;html=1;align=center;" vertex="1" parent="WIyWlLk6GJQsqaUBKTNV-1">
          <mxGeometry x="230" y="330" width="30" height="60" as="geometry" />
        </mxCell>
        <mxCell id="P8UpuQGkX5exm7YgRXcS-42" value="0. Interacts with" style="text;html=1;align=center;verticalAlign=middle;resizable=0;points=[];autosize=1;" vertex="1" parent="WIyWlLk6GJQsqaUBKTNV-1">
          <mxGeometry x="240" y="300" width="100" height="20" as="geometry" />
        </mxCell>
        <mxCell id="P8UpuQGkX5exm7YgRXcS-44" value="1. Alerts Controller&lt;br&gt;when event is triggered" style="text;html=1;strokeColor=none;fillColor=none;align=center;verticalAlign=middle;whiteSpace=wrap;rounded=0;" vertex="1" parent="WIyWlLk6GJQsqaUBKTNV-1">
          <mxGeometry x="110" y="140" width="60" height="90" as="geometry" />
        </mxCell>
        <mxCell id="P8UpuQGkX5exm7YgRXcS-49" value="3. Notifies that changes have been made" style="text;html=1;strokeColor=none;fillColor=none;align=center;verticalAlign=middle;whiteSpace=wrap;rounded=0;" vertex="1" parent="WIyWlLk6GJQsqaUBKTNV-1">
          <mxGeometry x="335" y="180" width="110" height="40" as="geometry" />
        </mxCell>
        <mxCell id="P8UpuQGkX5exm7YgRXcS-51" value="4. Grabs data and updates itself" style="text;html=1;strokeColor=none;fillColor=none;align=center;verticalAlign=middle;whiteSpace=wrap;rounded=0;" vertex="1" parent="WIyWlLk6GJQsqaUBKTNV-1">
          <mxGeometry x="310" y="250" width="220" height="20" as="geometry" />
        </mxCell>
      </root>
    </mxGraphModel>
  </diagram>
</mxfile>
